<mxfile host="app.diagrams.net" modified="2024-02-21T13:00:20.954Z" agent="Mozilla/5.0 (Windows NT 10.0; Win64; x64) AppleWebKit/537.36 (KHTML, like Gecko) Chrome/121.0.0.0 Safari/537.36" etag="wz7bLosb9doJeiPqPc3k" version="22.1.18" type="github">
  <diagram name="第 1 页" id="UszKce_Zb8TJsS0_JQx5">
    <mxGraphModel dx="1434" dy="737" grid="1" gridSize="10" guides="1" tooltips="1" connect="1" arrows="1" fold="1" page="1" pageScale="1" pageWidth="827" pageHeight="1169" math="0" shadow="0">
      <root>
        <mxCell id="0" />
        <mxCell id="1" parent="0" />
        <mxCell id="o-IC-B1qbCuGFVhxUFcW-17" value="&lt;font style=&quot;font-size: 18px;&quot;&gt;安全策略&lt;/font&gt;" style="ellipse;whiteSpace=wrap;html=1;" vertex="1" parent="1">
          <mxGeometry x="390" y="180" width="120" height="80" as="geometry" />
        </mxCell>
        <mxCell id="o-IC-B1qbCuGFVhxUFcW-18" value="&lt;font style=&quot;font-size: 18px;&quot;&gt;安全规则1&lt;/font&gt;" style="ellipse;whiteSpace=wrap;html=1;" vertex="1" parent="1">
          <mxGeometry x="180" y="310" width="120" height="80" as="geometry" />
        </mxCell>
        <mxCell id="o-IC-B1qbCuGFVhxUFcW-20" value="" style="endArrow=classic;html=1;rounded=0;exitX=0;exitY=1;exitDx=0;exitDy=0;entryX=0.5;entryY=0;entryDx=0;entryDy=0;" edge="1" parent="1" source="o-IC-B1qbCuGFVhxUFcW-17" target="o-IC-B1qbCuGFVhxUFcW-18">
          <mxGeometry width="50" height="50" relative="1" as="geometry">
            <mxPoint x="40" y="380" as="sourcePoint" />
            <mxPoint x="90" y="330" as="targetPoint" />
          </mxGeometry>
        </mxCell>
        <mxCell id="o-IC-B1qbCuGFVhxUFcW-21" value="&lt;font style=&quot;font-size: 18px;&quot;&gt;安全规则2&lt;/font&gt;" style="ellipse;whiteSpace=wrap;html=1;fillColor=#B3B3B3;" vertex="1" parent="1">
          <mxGeometry x="340" y="310" width="120" height="80" as="geometry" />
        </mxCell>
        <mxCell id="o-IC-B1qbCuGFVhxUFcW-23" value="" style="endArrow=classic;html=1;rounded=0;exitX=0.417;exitY=0.975;exitDx=0;exitDy=0;exitPerimeter=0;entryX=0.65;entryY=0.013;entryDx=0;entryDy=0;entryPerimeter=0;" edge="1" parent="1" source="o-IC-B1qbCuGFVhxUFcW-17" target="o-IC-B1qbCuGFVhxUFcW-21">
          <mxGeometry width="50" height="50" relative="1" as="geometry">
            <mxPoint x="-90" y="420" as="sourcePoint" />
            <mxPoint x="-40" y="370" as="targetPoint" />
          </mxGeometry>
        </mxCell>
        <mxCell id="o-IC-B1qbCuGFVhxUFcW-27" value="" style="endArrow=none;dashed=1;html=1;dashPattern=1 3;strokeWidth=2;rounded=0;" edge="1" parent="1">
          <mxGeometry width="50" height="50" relative="1" as="geometry">
            <mxPoint x="500" y="349.5" as="sourcePoint" />
            <mxPoint x="550" y="349.5" as="targetPoint" />
          </mxGeometry>
        </mxCell>
        <mxCell id="o-IC-B1qbCuGFVhxUFcW-28" value="&lt;font style=&quot;font-size: 18px;&quot;&gt;安全规则n&lt;/font&gt;" style="ellipse;whiteSpace=wrap;html=1;" vertex="1" parent="1">
          <mxGeometry x="600" y="310" width="120" height="80" as="geometry" />
        </mxCell>
        <mxCell id="o-IC-B1qbCuGFVhxUFcW-29" value="" style="endArrow=classic;html=1;rounded=0;exitX=1;exitY=1;exitDx=0;exitDy=0;entryX=0;entryY=0;entryDx=0;entryDy=0;" edge="1" parent="1" source="o-IC-B1qbCuGFVhxUFcW-17" target="o-IC-B1qbCuGFVhxUFcW-28">
          <mxGeometry width="50" height="50" relative="1" as="geometry">
            <mxPoint x="130" y="540" as="sourcePoint" />
            <mxPoint x="180" y="490" as="targetPoint" />
          </mxGeometry>
        </mxCell>
        <mxCell id="o-IC-B1qbCuGFVhxUFcW-31" value="&lt;font style=&quot;font-size: 18px;&quot;&gt;安全规则1.1&lt;/font&gt;" style="ellipse;whiteSpace=wrap;html=1;" vertex="1" parent="1">
          <mxGeometry x="80" y="440" width="120" height="80" as="geometry" />
        </mxCell>
        <mxCell id="o-IC-B1qbCuGFVhxUFcW-32" value="" style="endArrow=classic;html=1;rounded=0;exitX=0;exitY=1;exitDx=0;exitDy=0;entryX=0.65;entryY=0;entryDx=0;entryDy=0;entryPerimeter=0;" edge="1" parent="1" source="o-IC-B1qbCuGFVhxUFcW-18" target="o-IC-B1qbCuGFVhxUFcW-31">
          <mxGeometry width="50" height="50" relative="1" as="geometry">
            <mxPoint x="-20" y="410" as="sourcePoint" />
            <mxPoint x="30" y="360" as="targetPoint" />
          </mxGeometry>
        </mxCell>
        <mxCell id="o-IC-B1qbCuGFVhxUFcW-33" value="&lt;font style=&quot;font-size: 18px;&quot;&gt;安全规则1.2&lt;/font&gt;" style="ellipse;whiteSpace=wrap;html=1;" vertex="1" parent="1">
          <mxGeometry x="270" y="440" width="120" height="80" as="geometry" />
        </mxCell>
        <mxCell id="o-IC-B1qbCuGFVhxUFcW-34" value="" style="endArrow=classic;html=1;rounded=0;exitX=0.775;exitY=0.938;exitDx=0;exitDy=0;exitPerimeter=0;entryX=0.325;entryY=0.038;entryDx=0;entryDy=0;entryPerimeter=0;" edge="1" parent="1" source="o-IC-B1qbCuGFVhxUFcW-18" target="o-IC-B1qbCuGFVhxUFcW-33">
          <mxGeometry width="50" height="50" relative="1" as="geometry">
            <mxPoint x="-70" y="480" as="sourcePoint" />
            <mxPoint x="-20" y="430" as="targetPoint" />
          </mxGeometry>
        </mxCell>
        <mxCell id="o-IC-B1qbCuGFVhxUFcW-35" value="&lt;font style=&quot;font-size: 18px;&quot;&gt;安全规则1.2.1&lt;/font&gt;" style="ellipse;whiteSpace=wrap;html=1;fillColor=#B3B3B3;" vertex="1" parent="1">
          <mxGeometry x="200" y="560" width="120" height="80" as="geometry" />
        </mxCell>
        <mxCell id="o-IC-B1qbCuGFVhxUFcW-36" value="&lt;font style=&quot;font-size: 18px;&quot;&gt;安全规则1.2.1&lt;/font&gt;" style="ellipse;whiteSpace=wrap;html=1;fillColor=#B3B3B3;" vertex="1" parent="1">
          <mxGeometry x="360" y="560" width="120" height="80" as="geometry" />
        </mxCell>
        <mxCell id="o-IC-B1qbCuGFVhxUFcW-37" value="" style="endArrow=classic;html=1;rounded=0;exitX=0.25;exitY=0.938;exitDx=0;exitDy=0;exitPerimeter=0;entryX=0.567;entryY=0.025;entryDx=0;entryDy=0;entryPerimeter=0;" edge="1" parent="1" source="o-IC-B1qbCuGFVhxUFcW-33" target="o-IC-B1qbCuGFVhxUFcW-35">
          <mxGeometry width="50" height="50" relative="1" as="geometry">
            <mxPoint x="200" y="570" as="sourcePoint" />
            <mxPoint x="250" y="520" as="targetPoint" />
          </mxGeometry>
        </mxCell>
        <mxCell id="o-IC-B1qbCuGFVhxUFcW-38" value="" style="endArrow=classic;html=1;rounded=0;exitX=1;exitY=1;exitDx=0;exitDy=0;entryX=0.342;entryY=0.013;entryDx=0;entryDy=0;entryPerimeter=0;" edge="1" parent="1" source="o-IC-B1qbCuGFVhxUFcW-33" target="o-IC-B1qbCuGFVhxUFcW-36">
          <mxGeometry width="50" height="50" relative="1" as="geometry">
            <mxPoint x="-30" y="570" as="sourcePoint" />
            <mxPoint x="20" y="520" as="targetPoint" />
          </mxGeometry>
        </mxCell>
        <mxCell id="o-IC-B1qbCuGFVhxUFcW-39" value="&lt;font style=&quot;font-size: 18px;&quot;&gt;安全规则n.1&lt;/font&gt;" style="ellipse;whiteSpace=wrap;html=1;fillColor=#B3B3B3;" vertex="1" parent="1">
          <mxGeometry x="510" y="440" width="120" height="80" as="geometry" />
        </mxCell>
        <mxCell id="o-IC-B1qbCuGFVhxUFcW-40" value="&lt;font style=&quot;font-size: 18px;&quot;&gt;安全规则n.2&lt;/font&gt;" style="ellipse;whiteSpace=wrap;html=1;fillColor=#B3B3B3;" vertex="1" parent="1">
          <mxGeometry x="700" y="440" width="120" height="80" as="geometry" />
        </mxCell>
        <mxCell id="o-IC-B1qbCuGFVhxUFcW-41" value="" style="endArrow=classic;html=1;rounded=0;exitX=0.242;exitY=0.913;exitDx=0;exitDy=0;exitPerimeter=0;entryX=0.675;entryY=0.063;entryDx=0;entryDy=0;entryPerimeter=0;" edge="1" parent="1" source="o-IC-B1qbCuGFVhxUFcW-28" target="o-IC-B1qbCuGFVhxUFcW-39">
          <mxGeometry width="50" height="50" relative="1" as="geometry">
            <mxPoint x="-120" y="410" as="sourcePoint" />
            <mxPoint x="-70" y="360" as="targetPoint" />
          </mxGeometry>
        </mxCell>
        <mxCell id="o-IC-B1qbCuGFVhxUFcW-42" value="" style="endArrow=classic;html=1;rounded=0;exitX=1;exitY=1;exitDx=0;exitDy=0;entryX=0.325;entryY=0.063;entryDx=0;entryDy=0;entryPerimeter=0;" edge="1" parent="1" source="o-IC-B1qbCuGFVhxUFcW-28" target="o-IC-B1qbCuGFVhxUFcW-40">
          <mxGeometry width="50" height="50" relative="1" as="geometry">
            <mxPoint x="-40" y="410" as="sourcePoint" />
            <mxPoint x="10" y="360" as="targetPoint" />
          </mxGeometry>
        </mxCell>
      </root>
    </mxGraphModel>
  </diagram>
</mxfile>
